<svg height="512" viewBox="0 0 58 58" width="512" xmlns="http://www.w3.org/2000/svg"><g id="021---Yoga" fill="none"><path id="Shape" d="m50 21c0 1-6.8 5-12.6 5-3.14 0-5.35-.66-6.71-1.71-.4450185.4541951-1.0541269.7101449-1.69.7101449s-1.2449815-.2559498-1.69-.7101449c-1.36 1.05-3.57 1.71-6.71 1.71-5.8 0-12.6-4-12.6-5 0-.83 4.72-3.75 9.65-4.69-2.82-4.16-4.1-9.58-3.51-10.17s6.01.69 10.17 3.51c.94-4.93 3.86-9.65 4.69-9.65s3.75 4.72 4.69 9.65c4.16-2.82 9.58-4.1 10.17-3.51s-.69 6.01-3.51 10.17c4.93.94 9.65 3.86 9.65 4.69z" fill="#26b99a"/><path id="Shape" d="m49 57.99v.01h-45c-2.209139 0-4-1.790861-4-4v-1.657c.00022321-.2268358.03876551-.452004.114-.666l4.946-14.014c.12552898-.3502542.43513691-.6018559.80366152-.6530924.3685246-.0512364.73502459.106365.95133848.4090924.10908996.1447194.22768505.2820224.355.411.75233113.7476392 1.76935734 1.1681058 2.83 1.17h27.44z" fill="#955ba5"/><path id="Shape" d="m8 55h-2c-.55228475 0-1-.4477153-1-1s.44771525-1 1-1h2c.55228475 0 1 .4477153 1 1s-.44771525 1-1 1z" fill="#b49aca"/><path id="Shape" d="m38 55h-26c-.5522847 0-1-.4477153-1-1s.4477153-1 1-1h26c.5522847 0 1 .4477153 1 1s-.4477153 1-1 1z" fill="#b49aca"/><path id="Shape" d="m41.17 51.21-.05.01-3.68-12.22-.03-.09v-.01l-.31-1.2v-.01c-.0688579-.3928774-.1023254-.7911408-.1-1.19-.0019994-3.5695417 2.5120553-6.6458914 6.0104941-7.3548048 3.4984388-.7089133 7.0117635 1.1460659 8.3995059 4.4348048h.01l5.67 12.1z" fill="#894b9d"/><path id="Shape" d="m34 12.6c.0173282 1.2780242-.1169424 2.5535953-.4 3.8-.6801397.1656286-1.3405757.4036538-1.97.71-.7-2.72-2.18-5.11-2.63-5.11s-1.93 2.39-2.63 5.11c-.6257434-.3149851-1.2871836-.5533722-1.97-.71-.2830576-1.2464047-.4173282-2.5219758-.4-3.8.0051986-.9911832.1090438-1.9793879.31-2.95.94-4.93 3.86-9.65 4.69-9.65s3.75 4.72 4.69 9.65c.2009562.9706121.3048014 1.9588168.31 2.95z" fill="#14a085"/><path id="Shape" d="m32 19.8c0 2.23-.52 3.7-1.31 4.49-.4450185.4541951-1.0541269.7101449-1.69.7101449s-1.2449815-.2559498-1.69-.7101449c-.79-.79-1.31-2.26-1.31-4.49.0142439-.9083188.1384824-1.8115665.37-2.69.7-2.72 2.18-5.11 2.63-5.11s1.93 2.39 2.63 5.11c.2315176.8784335.3557561 1.7816812.37 2.69z" fill="#81ccb8"/><path id="Shape" d="m24.4 16.4c-1.2464047-.2830576-2.5219758-.4173282-3.8-.4-.9911832.0051986-1.9793879.1090438-2.95.31-2.82-4.16-4.1-9.58-3.51-10.17s6.01.69 10.17 3.51c-.2009562.9706121-.3048014 1.9588168-.31 2.95-.0173282 1.2780242.1169424 2.5535953.4 3.8z" fill="#33907c"/><path id="Shape" d="m40.35 16.31c-.9706121-.2009562-1.9588168-.3048014-2.95-.31-1.2780242-.0173282-2.5535953.1169424-3.8.4.2830576-1.2464047.4173282-2.5219758.4-3.8-.0051986-.9911832-.1090438-1.9793879-.31-2.95 4.16-2.82 9.58-4.1 10.17-3.51s-.69 6.01-3.51 10.17z" fill="#33907c"/><path id="Shape" d="m58 49.5c-.0033092 4.693049-3.806951 8.4966908-8.5 8.5-.17 0-.33 0-.5-.01-3.8422055-.2310193-7.051925-3.0103167-7.83-6.78-.1129591-.5629932-.1699035-1.1357866-.17-1.71.0029951-3.9356419 2.7073463-7.354542 6.5365509-8.2636509 3.8292045-.9091088 7.7817297.929352 9.5534491 4.4436509l.21.45.18.45c.3462365.9344924.5223488 1.9234308.52 2.92z" fill="#5d4c72"/><circle id="Oval" cx="49.5" cy="49.5" fill="#3d324c" r="4.5"/></g></svg>